PathFileType	4	(X/Y/Z)	/Users/itak/Documents/Research/Walk-IL/dataset/trc/00067_00006.trc
DataRate	CameraRate	NumFrames	NumMarkers	Units	OrigDataRate	OrigDataStartFrame	OrigNumFrames
100.000000	100.000000	4	53	mm	100.000000	595	680
Frame#	Time	RPSI			LPSI			L3			STRN			T10			C7			CLAV			RBAK			LBAK			LSHO			LUPA			LAEL			LAOL			LWTS			LWPS			LFRA			LIFD			LHPS			LHTS			RSHO			RUPA			RAEL			RAOL			RWTS			RWPS			RFRA			RIFD			RHTS			RHPS			RBHD			LFHD			RFHD			LBHD			LHIP			RHIP			RASI			LASI			LKNE			LTHI			LANK			LTIP			LTOE			LMT1			LMT5			LHEE			RKNE			RTHI			RANK			RTIP			RTOE			RMT1			RMT5			RHEE			
		X1	Y1	Z1	X2	Y2	Z2	X3	Y3	Z3	X4	Y4	Z4	X5	Y5	Z5	X6	Y6	Z6	X7	Y7	Z7	X8	Y8	Z8	X9	Y9	Z9	X10	Y10	Z10	X11	Y11	Z11	X12	Y12	Z12	X13	Y13	Z13	X14	Y14	Z14	X15	Y15	Z15	X16	Y16	Z16	X17	Y17	Z17	X18	Y18	Z18	X19	Y19	Z19	X20	Y20	Z20	X21	Y21	Z21	X22	Y22	Z22	X23	Y23	Z23	X24	Y24	Z24	X25	Y25	Z25	X26	Y26	Z26	X27	Y27	Z27	X28	Y28	Z28	X29	Y29	Z29	X30	Y30	Z30	X31	Y31	Z31	X32	Y32	Z32	X33	Y33	Z33	X34	Y34	Z34	X35	Y35	Z35	X36	Y36	Z36	X37	Y37	Z37	X38	Y38	Z38	X39	Y39	Z39	X40	Y40	Z40	X41	Y41	Z41	X42	Y42	Z42	X43	Y43	Z43	X44	Y44	Z44	X45	Y45	Z45	X46	Y46	Z46	X47	Y47	Z47	X48	Y48	Z48	X49	Y49	Z49	X50	Y50	Z50	X51	Y51	Z51	X52	Y52	Z52	X53	Y53	Z53	

596	5.95	-516.4381713867188	1035.739135742188	1087.661743164062	-429.9368896484375	1030.243896484375	934.7424926757812	-468.234130859375	1089.468017578125	1007.581481933594	-267.5194702148438	1289.137817382812	1151.216430664062	-485.7235412597656	1224.310913085938	992.4097900390625	-437.6011657714844	1490.730224609375	1029.33447265625	-292.0029296875	1403.675170898438	1132.99658203125	-531.5780029296875	1352.289428710938	1049.76513671875	-397.0021667480469	1456.1240234375	933.012939453125	-271.1857299804688	1460.958129882812	935.2388305664062	-235.4955139160156	1340.239990234375	858.2569580078125	-192.2872772216797	1126.91259765625	844.454345703125	-295.5830993652344	1107.605590820312	862.94970703125	-163.7608947753906	892.8546142578125	964.1773071289062	-159.7346649169922	878.2550659179688	881.43701171875	-166.5634002685547	1018.353637695312	857.1871337890625	-164.3114929199219	709.2535400390625	995.627197265625	-138.0707244873047	798.776123046875	912.1752319335938	-144.0928955078125	811.4755859375	982.2247924804688	-487.9554138183594	1453.264038085938	1206.557250976562	-536.1962890625	1385.29443359375	1248.3916015625	-591.2166137695312	1126.217651367188	1263.282592773438	-518.3386840820312	1098.9873046875	1199.8427734375	-448.6221618652344	879.2258911132812	1330.506713867188	-534.7269287109375	861.4660034179688	1326.984130859375	-587.198486328125	1044.400390625	1281.740234375	-432.4999084472656	690.4624633789062	1309.678100585938	-429.7733154296875	774.6425170898438	1343.271850585938	-506.7552795410156	771.7136840820312	1347.245483398438	-426.7555847167969	1666.861450195312	1061.483154296875	-230.8484497070312	1701.911499023438	1147.174682617188	-257.0785522460938	1707.16259765625	1022.766906738281	-389.1520690917969	1653.024169921875	1193.44580078125	-292.584228515625	969.1865844726562	916.815673828125	-503.8077392578125	964.577880859375	1186.080444335938	-391.01904296875	976.9197998046875	1241.146118164062	-230.647705078125	977.8721923828125	1025.081787109375	-259.7538452148438	504.5824279785156	1016.494995117188	-266.5509948730469	643.96875	961.6634521484375	-367.005859375	53.75188827514648	943.8699340820312	-311.8443298339844	264.8203735351562	965.5428466796875	-201.438720703125	46.23073959350586	1067.013916015625	-272.6089477539062	42.88841247558594	1081.775634765625	-260.2071838378906	47.49369812011719	971.132568359375	-453.9313354492188	49.52248764038086	975.4912719726562	-436.7511901855469	517.9945068359375	1178.474365234375	-439.8515625	785.7037963867188	1229.305541992188	-516.9063720703125	44.60451126098633	1085.853271484375	-462.0512084960938	397.6406860351562	1159.78955078125	-323.9080505371094	43.21636962890625	1193.431762695312	-346.4381713867188	52.90639114379883	1124.713500976562	-431.42333984375	47.53786087036133	1175.866577148438	-517.6690673828125	51.05161666870117	1013.205200195312	
597	5.96	-515.5119018554688	1035.867553710938	1087.811767578125	-428.9013366699219	1030.667358398438	934.9584350585938	-467.2690124511719	1089.454345703125	1007.841979980469	-266.62451171875	1289.253051757812	1151.394287109375	-484.9643859863281	1224.33203125	992.8232421875	-436.8932800292969	1490.7685546875	1029.645385742188	-291.1177368164062	1403.777099609375	1133.142211914062	-530.820068359375	1352.349853515625	1050.2607421875	-396.4191284179688	1456.140502929688	933.2579956054688	-270.5543823242188	1461.017700195312	935.2921752929688	-235.0116729736328	1340.189575195312	858.4163818359375	-192.163818359375	1126.733764648438	844.9671630859375	-295.4087829589844	1107.587524414062	863.7343139648438	-163.4288635253906	892.861572265625	964.9014282226562	-159.8256072998047	878.0590209960938	882.1900024414062	-166.5322418212891	1018.166748046875	857.7642211914062	-163.7476501464844	709.4061279296875	996.9564819335938	-137.9942016601562	798.6694946289062	913.0468139648438	-143.6228790283203	811.5809936523438	983.07958984375	-486.9808654785156	1453.387573242188	1207.014892578125	-535.1773681640625	1385.353393554688	1248.933715820312	-589.5811157226562	1125.880615234375	1262.8818359375	-516.658935546875	1099.106079101562	1199.317749023438	-446.1972045898438	879.1362915039062	1329.26806640625	-532.2604370117188	861.14599609375	1325.735107421875	-585.394775390625	1043.969604492188	1281.021606445312	-429.5067749023438	690.4984741210938	1307.971069335938	-427.0567321777344	774.492431640625	1341.653564453125	-503.9707336425781	771.4215087890625	1345.774169921875	-425.9181518554688	1666.939086914062	1061.713012695312	-229.9410400390625	1701.948852539062	1147.316284179688	-256.2630615234375	1707.314331054688	1022.912414550781	-388.2107849121094	1652.979248046875	1193.584106445312	-291.7026062011719	969.37939453125	917.1705932617188	-503.0069885253906	964.5944213867188	1186.193969726562	-390.25634765625	976.8690795898438	1241.385864257812	-229.7045440673828	977.9241333007812	1025.433959960938	-260.3747253417969	504.5093688964844	1015.440124511719	-266.8492736816406	644.119873046875	961.0508422851562	-367.0021362304688	53.71753692626953	943.8135986328125	-312.3372497558594	264.9631652832031	965.0022583007812	-201.4316558837891	46.2238883972168	1066.975463867188	-272.5865478515625	42.91349411010742	1081.76025390625	-260.2047424316406	47.46226119995117	971.098876953125	-453.9418334960938	49.51443481445312	975.4027099609375	-436.9521179199219	517.9503173828125	1178.125854492188	-439.8323669433594	785.3563232421875	1229.227661132812	-516.901611328125	44.61641693115234	1085.828735351562	-462.4578857421875	397.8018798828125	1159.4765625	-323.9478759765625	43.25543594360352	1193.408813476562	-346.4588623046875	52.92387008666992	1124.720947265625	-431.4172668457031	47.50831604003906	1175.859252929688	-517.7203369140625	51.08590698242188	1013.132202148438	
598	5.97	-514.5982055664062	1035.988647460938	1087.925659179688	-427.8650512695312	1031.05126953125	935.14892578125	-466.3062744140625	1089.418090820312	1008.058349609375	-265.7587890625	1289.3671875	1151.552612304688	-484.213134765625	1224.323120117188	993.2003173828125	-436.2139282226562	1490.781005859375	1029.90283203125	-290.2667236328125	1403.869750976562	1133.25537109375	-530.0791015625	1352.377319335938	1050.714721679688	-395.8668212890625	1456.127075195312	933.4478759765625	-269.9571228027344	1461.058471679688	935.3104858398438	-234.5596313476562	1340.11376953125	858.5406494140625	-192.1003570556641	1126.53125	845.4436645507812	-295.2807312011719	1107.557983398438	864.5022583007812	-163.12890625	892.8028564453125	965.5012817382812	-160.0049896240234	877.81884765625	882.813232421875	-166.5776977539062	1017.948852539062	858.264892578125	-163.2285919189453	709.48828125	998.1533203125	-138.0002593994141	798.5009765625	913.7673950195312	-143.1915588378906	811.6317749023438	983.7871704101562	-486.0565185546875	1453.512084960938	1207.424926757812	-534.19873046875	1385.414916992188	1249.429809570312	-588.0189819335938	1125.5830078125	1262.5126953125	-515.0694580078125	1099.237548828125	1198.8173828125	-443.867431640625	879.0640869140625	1328.057495117188	-529.8946533203125	860.8694458007812	1324.541625976562	-583.6647338867188	1043.580444335938	1280.35107421875	-426.6731262207031	690.5499267578125	1306.284790039062	-424.4411010742188	774.4019165039062	1340.095825195312	-501.3129272460938	771.1669921875	1344.349975585938	-425.0738525390625	1667.0224609375	1061.849731445312	-229.1170959472656	1701.963745117188	1147.556518554688	-255.4022216796875	1707.460571289062	1023.127502441406	-387.4088439941406	1652.929321289062	1193.656860351562	-290.8370666503906	969.5307006835938	917.5140380859375	-502.2377014160156	964.6034545898438	1186.289306640625	-389.515625	976.8382568359375	1241.622924804688	-228.765380859375	977.9530029296875	1025.788940429688	-261.0050659179688	504.4210510253906	1014.394226074219	-267.1723327636719	644.2487182617188	960.448486328125	-367.0027465820312	53.68008804321289	943.7576293945312	-312.8217163085938	265.0895080566406	964.464111328125	-201.4332275390625	46.22005081176758	1066.9375	-272.5698852539062	42.9373664855957	1081.741455078125	-260.2059326171875	47.43085861206055	971.0657348632812	-453.9598999023438	49.49664688110352	975.3136596679688	-437.177978515625	517.915771484375	1177.789672851562	-439.7442932128906	785.092041015625	1229.19677734375	-516.8953857421875	44.63704681396484	1085.802856445312	-462.8577575683594	397.9652709960938	1159.165405273438	-323.99169921875	43.30714797973633	1193.376586914062	-346.4818420410156	52.93453598022461	1124.725463867188	-431.4089050292969	47.48211288452148	1175.851318359375	-517.7652587890625	51.12588500976562	1013.056030273438	
599	5.98	-513.70166015625	1036.096069335938	1088.017211914062	-426.8359680175781	1031.394287109375	935.32275390625	-465.3485412597656	1089.357299804688	1008.241943359375	-264.9225769042969	1289.477172851562	1151.694458007812	-483.4678955078125	1224.280517578125	993.546630859375	-435.5596618652344	1490.765258789062	1030.106689453125	-289.4501953125	1403.951171875	1133.33935546875	-529.3545532226562	1352.36865234375	1051.123657226562	-395.3445434570312	1456.082275390625	933.5817260742188	-269.3941955566406	1461.079223632812	935.2954711914062	-234.1332244873047	1340.013671875	858.6307983398438	-192.0835723876953	1126.3056640625	845.8861694335938	-295.1945190429688	1107.518920898438	865.23779296875	-162.8738708496094	892.66943359375	965.966064453125	-160.2768707275391	877.5319213867188	883.2945556640625	-166.6951904296875	1017.699401855469	858.68701171875	-162.7870025634766	709.4898071289062	999.1914672851562	-138.1069488525391	798.261474609375	914.31982421875	-142.8222351074219	811.6143798828125	984.3311157226562	-485.1846618652344	1453.62841796875	1207.781982421875	-533.260986328125	1385.468505859375	1249.871337890625	-586.5325927734375	1125.322387695312	1262.171875	-513.5682983398438	1099.378173828125	1198.343017578125	-441.6328735351562	879.0096435546875	1326.881469726562	-527.6241455078125	860.6288452148438	1323.410888671875	-582.0086669921875	1043.228149414062	1279.732299804688	-423.9836730957031	690.61669921875	1304.639038085938	-421.9290466308594	774.3648681640625	1338.606323242188	-498.7770385742188	770.9459838867188	1342.984497070312	-424.22607421875	1667.109008789062	1061.897583007812	-228.3796081542969	1701.956665039062	1147.889282226562	-254.5039825439453	1707.602294921875	1023.408874511719	-386.7478942871094	1652.87255859375	1193.674194335938	-289.9972229003906	969.641357421875	917.8441772460938	-501.4941101074219	964.5997924804688	1186.3837890625	-388.7864685058594	976.8212280273438	1241.85791015625	-227.827392578125	977.9589233398438	1026.140625	-261.6484069824219	504.3180541992188	1013.366455078125	-267.5205078125	644.3547973632812	959.8651123046875	-367.0082397460938	53.6409912109375	943.7052001953125	-313.2957763671875	265.1983337402344	963.9348754882812	-201.4420013427734	46.21945571899414	1066.90087890625	-272.5595092773438	42.95805740356445	1081.720092773438	-260.2113037109375	47.4013557434082	971.0354614257812	-453.9855041503906	49.46731567382812	975.2283325195312	-437.412841796875	517.8873291015625	1177.464111328125	-439.5491943359375	784.9351806640625	1229.224365234375	-516.889892578125	44.66089630126953	1085.775756835938	-463.2437744140625	398.1246337890625	1158.859008789062	-324.0399169921875	43.37405776977539	1193.333862304688	-346.5089721679688	52.94075012207031	1124.7255859375	-431.4010620117188	47.4609489440918	1175.8427734375	-517.8046875	51.16227722167969	1012.97802734375	
